<svg width="213" height="64" viewBox="0 0 213 64" fill="none" xmlns="http://www.w3.org/2000/svg">
<path d="M0 -1.14441e-05L0 63.33L131.31 63.33V-1.14441e-05L0 -1.14441e-05Z" fill="black"/>
<path d="M11.77 58.51V32.6H7.42999V24.98H11.77V17.43C11.77 12.92 12.81 9.68998 14.88 7.73998C16.95 5.78998 20.37 4.81998 25.13 4.81998C25.65 4.81998 26.26 4.86998 26.96 4.96998C27.65 5.06998 28.56 5.25998 29.68 5.52998V13.29C29.09 12.97 28.52 12.74 27.97 12.59C27.42 12.44 26.85 12.37 26.26 12.37C24.55 12.37 23.33 12.82 22.6 13.72C21.87 14.62 21.51 16.18 21.51 18.39V24.99H27.73V32.61H21.51V58.52H11.77V58.51Z" fill="white"/>
<path d="M62.87 24.98L67.72 42.34C67.81 42.68 67.93 43.29 68.08 44.15C68.23 45.02 68.5 46.79 68.88 49.48C69.09 48.43 69.34 47.33 69.65 46.16C69.96 45 70.34 43.7 70.8 42.26L76.03 24.97H86.63L75.01 58.5H64.62L59.6 41.14C59.51 40.82 59.36 40.31 59.16 39.6C58.41 36.98 57.86 34.84 57.52 33.17C57.22 34.72 56.93 36.13 56.65 37.41C56.36 38.69 56.06 39.88 55.74 41L50.58 58.5H40.22L28.6 24.97H39.23L44.36 41.62C44.82 43.12 45.19 44.49 45.49 45.7C45.79 46.92 46.04 48.17 46.24 49.44C46.42 48.05 46.64 46.71 46.89 45.42C47.14 44.13 47.44 42.89 47.78 41.68L52.26 24.97H62.89L62.87 24.98Z" fill="white"/>
<path d="M124.53 58.51H115.1L115.24 53.69C113.92 55.81 112.33 57.36 110.47 58.36C108.61 59.35 106.35 59.85 103.68 59.85C99.24 59.85 95.65 58.2 92.93 54.89C90.21 51.59 88.85 47.22 88.85 41.8C88.85 36.38 90.19 31.71 92.87 28.54C95.55 25.37 99.27 23.79 104.03 23.79C106.47 23.79 108.61 24.35 110.46 25.46C112.31 26.58 114.04 28.34 115.66 30.76C115.55 29.94 115.46 29.03 115.4 28.04C115.34 27.05 115.31 25.92 115.31 24.64V5.52997H124.54V58.51H124.53ZM115.64 41.69C115.64 38.68 114.88 36.3 113.37 34.55C111.85 32.8 109.81 31.92 107.24 31.92C104.67 31.92 102.52 32.78 101 34.5C99.48 36.22 98.73 38.6 98.73 41.63C98.73 44.66 99.48 47.03 100.97 48.74C102.46 50.45 104.53 51.3 107.17 51.3C109.81 51.3 111.94 50.46 113.42 48.77C114.9 47.08 115.64 44.73 115.64 41.69Z" fill="white"/>
<path d="M134.13 53.69C134.13 52.05 134.71 50.65 135.86 49.49C137.01 48.33 138.4 47.75 140.01 47.75C141.62 47.75 143.01 48.33 144.16 49.49C145.31 50.65 145.89 52.05 145.89 53.69C145.89 55.33 145.32 56.68 144.18 57.81C143.04 58.94 141.65 59.5 140.01 59.5C138.37 59.5 137.01 58.93 135.86 57.79C134.71 56.65 134.13 55.28 134.13 53.69Z" fill="black"/>
<path d="M156.76 58.51V32.6H152.08V24.98H156.76V13.84H166.5V24.98H171.18V32.6H166.5V58.51H156.76Z" fill="black"/>
<path d="M212.47 41.87C212.47 47.02 210.71 51.3 207.19 54.72C203.67 58.14 199.21 59.85 193.81 59.85C188.41 59.85 183.87 58.14 180.34 54.72C176.81 51.3 175.04 47.02 175.04 41.87C175.04 36.72 176.82 32.46 180.37 29.02C183.92 25.58 188.4 23.86 193.8 23.86C199.2 23.86 203.69 25.56 207.2 28.95C210.71 32.35 212.46 36.65 212.46 41.87H212.47ZM202.56 41.8C202.56 39.07 201.76 36.88 200.17 35.25C198.57 33.62 196.43 32.81 193.74 32.81C191.05 32.81 188.92 33.62 187.35 35.24C185.78 36.86 184.99 39.05 184.99 41.8C184.99 44.55 185.78 46.72 187.35 48.36C188.92 50 191.05 50.82 193.74 50.82C196.43 50.82 198.54 50 200.15 48.36C201.76 46.72 202.56 44.53 202.56 41.8Z" fill="black"/>
</svg>
